<mxfile host="Electron" modified="2023-04-24T04:05:58.150Z" agent="Mozilla/5.0 (Macintosh; Intel Mac OS X 10_15_7) AppleWebKit/537.36 (KHTML, like Gecko) draw.io/21.2.1 Chrome/112.0.5615.87 Electron/24.1.2 Safari/537.36" etag="wp_OebKZPIgmt7lGKlrB" version="21.2.1" type="device">
  <diagram id="R2lEEEUBdFMjLlhIrx00" name="Page-1">
    <mxGraphModel dx="954" dy="630" grid="1" gridSize="10" guides="1" tooltips="1" connect="1" arrows="1" fold="1" page="1" pageScale="1" pageWidth="850" pageHeight="1100" math="0" shadow="0" extFonts="Permanent Marker^https://fonts.googleapis.com/css?family=Permanent+Marker">
      <root>
        <mxCell id="0" />
        <mxCell id="1" parent="0" />
        <mxCell id="AxkCHM1mqonQvwQ71vnP-8" style="edgeStyle=entityRelationEdgeStyle;rounded=1;orthogonalLoop=1;jettySize=auto;html=1;dashed=1;" parent="1" source="AxkCHM1mqonQvwQ71vnP-1" target="AxkCHM1mqonQvwQ71vnP-5" edge="1">
          <mxGeometry relative="1" as="geometry">
            <mxPoint x="379.9999999999999" y="560" as="targetPoint" />
          </mxGeometry>
        </mxCell>
        <mxCell id="AxkCHM1mqonQvwQ71vnP-1" value="Room Service" style="rounded=1;whiteSpace=wrap;html=1;fontFamily=Ubuntu Mono;fontSource=https%3A%2F%2Ffonts.googleapis.com%2Fcss%3Ffamily%3DUbuntu%2BMono;" parent="1" vertex="1">
          <mxGeometry x="160" y="700" width="120" height="60" as="geometry" />
        </mxCell>
        <mxCell id="AxkCHM1mqonQvwQ71vnP-6" style="edgeStyle=entityRelationEdgeStyle;orthogonalLoop=1;jettySize=auto;html=1;fontFamily=Ubuntu Mono;fontSource=https%3A%2F%2Ffonts.googleapis.com%2Fcss%3Ffamily%3DUbuntu%2BMono;elbow=vertical;dashed=1;rounded=1;" parent="1" source="AxkCHM1mqonQvwQ71vnP-2" target="AxkCHM1mqonQvwQ71vnP-5" edge="1">
          <mxGeometry relative="1" as="geometry">
            <mxPoint x="359.9999999999999" y="570" as="targetPoint" />
          </mxGeometry>
        </mxCell>
        <mxCell id="AxkCHM1mqonQvwQ71vnP-11" style="edgeStyle=orthogonalEdgeStyle;rounded=0;orthogonalLoop=1;jettySize=auto;html=1;exitX=0.75;exitY=1;exitDx=0;exitDy=0;dashed=1;" parent="1" source="AxkCHM1mqonQvwQ71vnP-2" target="AxkCHM1mqonQvwQ71vnP-10" edge="1">
          <mxGeometry relative="1" as="geometry" />
        </mxCell>
        <mxCell id="AxkCHM1mqonQvwQ71vnP-15" style="edgeStyle=orthogonalEdgeStyle;rounded=0;orthogonalLoop=1;jettySize=auto;html=1;exitX=0.25;exitY=1;exitDx=0;exitDy=0;entryX=0.25;entryY=0;entryDx=0;entryDy=0;startArrow=classic;startFill=1;jumpStyle=none;" parent="1" source="AxkCHM1mqonQvwQ71vnP-2" target="AxkCHM1mqonQvwQ71vnP-3" edge="1">
          <mxGeometry relative="1" as="geometry" />
        </mxCell>
        <mxCell id="AxkCHM1mqonQvwQ71vnP-2" value="User Service" style="rounded=1;whiteSpace=wrap;html=1;fontFamily=Ubuntu Mono;fontSource=https%3A%2F%2Ffonts.googleapis.com%2Fcss%3Ffamily%3DUbuntu%2BMono;" parent="1" vertex="1">
          <mxGeometry x="160" y="340" width="120" height="60" as="geometry" />
        </mxCell>
        <mxCell id="AxkCHM1mqonQvwQ71vnP-7" style="edgeStyle=orthogonalEdgeStyle;rounded=0;orthogonalLoop=1;jettySize=auto;html=1;dashed=1;" parent="1" source="AxkCHM1mqonQvwQ71vnP-3" target="AxkCHM1mqonQvwQ71vnP-5" edge="1">
          <mxGeometry relative="1" as="geometry" />
        </mxCell>
        <mxCell id="AxkCHM1mqonQvwQ71vnP-12" style="edgeStyle=orthogonalEdgeStyle;rounded=0;orthogonalLoop=1;jettySize=auto;html=1;exitX=0.75;exitY=0;exitDx=0;exitDy=0;dashed=1;" parent="1" source="AxkCHM1mqonQvwQ71vnP-3" target="AxkCHM1mqonQvwQ71vnP-10" edge="1">
          <mxGeometry relative="1" as="geometry" />
        </mxCell>
        <mxCell id="AxkCHM1mqonQvwQ71vnP-16" style="edgeStyle=orthogonalEdgeStyle;rounded=0;orthogonalLoop=1;jettySize=auto;html=1;startArrow=classic;startFill=1;" parent="1" source="AxkCHM1mqonQvwQ71vnP-3" target="AxkCHM1mqonQvwQ71vnP-1" edge="1">
          <mxGeometry relative="1" as="geometry" />
        </mxCell>
        <mxCell id="AxkCHM1mqonQvwQ71vnP-3" value="Demo Service" style="rounded=1;whiteSpace=wrap;html=1;fontFamily=Ubuntu Mono;fontSource=https%3A%2F%2Ffonts.googleapis.com%2Fcss%3Ffamily%3DUbuntu%2BMono;" parent="1" vertex="1">
          <mxGeometry x="160" y="530" width="120" height="60" as="geometry" />
        </mxCell>
        <mxCell id="AxkCHM1mqonQvwQ71vnP-9" style="edgeStyle=orthogonalEdgeStyle;rounded=0;orthogonalLoop=1;jettySize=auto;html=1;dashed=1;" parent="1" source="AxkCHM1mqonQvwQ71vnP-4" target="AxkCHM1mqonQvwQ71vnP-5" edge="1">
          <mxGeometry relative="1" as="geometry" />
        </mxCell>
        <mxCell id="AxkCHM1mqonQvwQ71vnP-4" value="Notification Service" style="rounded=1;whiteSpace=wrap;html=1;fontFamily=Ubuntu Mono;fontSource=https%3A%2F%2Ffonts.googleapis.com%2Fcss%3Ffamily%3DUbuntu%2BMono;" parent="1" vertex="1">
          <mxGeometry x="520" y="530" width="120" height="60" as="geometry" />
        </mxCell>
        <mxCell id="AxkCHM1mqonQvwQ71vnP-5" value="Queue" style="sketch=0;outlineConnect=0;fontColor=#232F3E;gradientColor=none;strokeColor=#232F3E;fillColor=#ffffff;dashed=0;verticalLabelPosition=bottom;verticalAlign=top;align=center;html=1;fontSize=12;fontStyle=0;aspect=fixed;shape=mxgraph.aws4.resourceIcon;resIcon=mxgraph.aws4.queue;fontFamily=Ubuntu Mono;fontSource=https%3A%2F%2Ffonts.googleapis.com%2Fcss%3Ffamily%3DUbuntu%2BMono;" parent="1" vertex="1">
          <mxGeometry x="385" y="540" width="40" height="40" as="geometry" />
        </mxCell>
        <mxCell id="AxkCHM1mqonQvwQ71vnP-10" value="Queue" style="sketch=0;outlineConnect=0;fontColor=#232F3E;gradientColor=none;strokeColor=#232F3E;fillColor=#ffffff;dashed=0;verticalLabelPosition=bottom;verticalAlign=top;align=center;html=1;fontSize=12;fontStyle=0;aspect=fixed;shape=mxgraph.aws4.resourceIcon;resIcon=mxgraph.aws4.queue;fontFamily=Ubuntu Mono;fontSource=https%3A%2F%2Ffonts.googleapis.com%2Fcss%3Ffamily%3DUbuntu%2BMono;" parent="1" vertex="1">
          <mxGeometry x="230" y="440" width="40" height="40" as="geometry" />
        </mxCell>
      </root>
    </mxGraphModel>
  </diagram>
</mxfile>
